<svg width="102" height="62" viewBox="0 0 102 62" fill="none" xmlns="http://www.w3.org/2000/svg">
<path d="M24.5765 61C19.6731 60.9811 15.4539 59.7836 11.9189 57.4074C8.4029 55.0311 5.69463 51.5893 3.79408 47.082C1.91255 42.5747 0.98128 37.1528 1.00029 30.8161C1.00029 24.4983 1.94105 19.1141 3.82259 14.6634C5.72313 10.2126 8.43141 6.82744 11.9474 4.50778C15.4824 2.16926 19.6921 1 24.5765 1C29.4609 1 33.6611 2.16926 37.1771 4.50778C40.7121 6.8463 43.4299 10.2409 45.3304 14.6917C47.231 19.1235 48.1718 24.4983 48.1528 30.8161C48.1528 37.1716 47.2025 42.603 45.3019 47.1103C43.4204 51.6176 40.7216 55.0594 37.2056 57.4356C33.6896 59.8119 29.4799 61 24.5765 61ZM24.5765 50.8444C27.9215 50.8444 30.5917 49.1754 32.5873 45.8373C34.5829 42.4993 35.5712 37.4922 35.5522 30.8161C35.5522 26.422 35.096 22.7633 34.1838 19.8402C33.2905 16.917 32.0171 14.7199 30.3637 13.2489C28.7292 11.7779 26.8002 11.0424 24.5765 11.0424C21.2506 11.0424 18.5898 12.6926 16.5942 15.9929C14.5987 19.2933 13.5914 24.2343 13.5724 30.8161C13.5724 35.2669 14.019 38.9821 14.9123 41.9618C15.8245 44.9227 17.1074 47.148 18.7609 48.6379C20.4143 50.1089 22.3529 50.8444 24.5765 50.8444ZM78.5353 60.5191C74.2781 60.5191 70.4865 59.793 67.1606 58.3409C63.8536 56.8699 61.2404 54.852 59.3208 52.2871C57.4203 49.7034 56.4415 46.7237 56.3845 43.348H68.814C68.8901 44.7624 69.3557 46.0071 70.2109 47.082C71.0852 48.1381 72.2445 48.9585 73.6889 49.5431C75.1333 50.1278 76.7583 50.4201 78.5638 50.4201C80.4454 50.4201 82.1083 50.0901 83.5527 49.43C84.9972 48.7699 86.128 47.8553 86.9452 46.686C87.7624 45.5167 88.1711 44.1683 88.1711 42.6407C88.1711 41.0943 87.7339 39.727 86.8597 38.5389C86.0044 37.3319 84.7691 36.389 83.1536 35.71C81.5572 35.0311 79.6566 34.6917 77.452 34.6917H72.0069V25.6959H77.452C79.3145 25.6959 80.9585 25.3753 82.3839 24.7341C83.8283 24.0929 84.9496 23.2065 85.7479 22.075C86.5461 20.9246 86.9452 19.5856 86.9452 18.058C86.9452 16.6058 86.5936 15.3329 85.8904 14.239C85.2062 13.1264 84.2369 12.2588 82.9826 11.6365C81.7472 11.0141 80.3028 10.703 78.6493 10.703C76.9769 10.703 75.4469 11.0047 74.0595 11.6082C72.6721 12.1928 71.5603 13.0321 70.7241 14.1259C69.8878 15.2197 69.4412 16.5021 69.3842 17.9731H57.5533C57.6103 14.6351 58.5701 11.6931 60.4326 9.1471C62.2952 6.60113 64.8039 4.6115 67.9588 3.17822C71.1327 1.72607 74.7152 1 78.7064 1C82.7355 1 86.261 1.72607 89.2829 3.17822C92.3047 4.63036 94.6519 6.5917 96.3244 9.06223C98.0159 11.5139 98.8521 14.2673 98.8331 17.3225C98.8521 20.5662 97.8353 23.2725 95.7827 25.4413C93.7492 27.6101 91.0979 28.9868 87.829 29.5714V30.024C92.1242 30.571 95.3931 32.0514 97.6358 34.4653C99.8974 36.8604 101.019 39.859 101 43.4611C101.019 46.7614 100.059 49.694 98.1204 52.2588C96.2009 54.8237 93.5496 56.8416 90.1666 58.3126C86.7837 59.7836 82.9066 60.5191 78.5353 60.5191Z" stroke="white" stroke-width="1.5"/>
<path d="M24.5765 61C19.6731 60.9811 15.4539 59.7836 11.9189 57.4074C8.4029 55.0311 5.69463 51.5893 3.79408 47.082C1.91255 42.5747 0.98128 37.1528 1.00029 30.8161C1.00029 24.4983 1.94105 19.1141 3.82259 14.6634C5.72313 10.2126 8.43141 6.82744 11.9474 4.50778C15.4824 2.16926 19.6921 1 24.5765 1C29.4609 1 33.6611 2.16926 37.1771 4.50778C40.7121 6.8463 43.4299 10.2409 45.3304 14.6917C47.231 19.1235 48.1718 24.4983 48.1528 30.8161C48.1528 37.1716 47.2025 42.603 45.3019 47.1103C43.4204 51.6176 40.7216 55.0594 37.2056 57.4356C33.6896 59.8119 29.4799 61 24.5765 61ZM24.5765 50.8444C27.9215 50.8444 30.5917 49.1754 32.5873 45.8373C34.5829 42.4993 35.5712 37.4922 35.5522 30.8161C35.5522 26.422 35.096 22.7633 34.1838 19.8402C33.2905 16.917 32.0171 14.7199 30.3637 13.2489C28.7292 11.7779 26.8002 11.0424 24.5765 11.0424C21.2506 11.0424 18.5898 12.6926 16.5942 15.9929C14.5987 19.2933 13.5914 24.2343 13.5724 30.8161C13.5724 35.2669 14.019 38.9821 14.9123 41.9618C15.8245 44.9227 17.1074 47.148 18.7609 48.6379C20.4143 50.1089 22.3529 50.8444 24.5765 50.8444ZM78.5353 60.5191C74.2781 60.5191 70.4865 59.793 67.1606 58.3409C63.8536 56.8699 61.2404 54.852 59.3208 52.2871C57.4203 49.7034 56.4415 46.7237 56.3845 43.348H68.814C68.8901 44.7624 69.3557 46.0071 70.2109 47.082C71.0852 48.1381 72.2445 48.9585 73.6889 49.5431C75.1333 50.1278 76.7583 50.4201 78.5638 50.4201C80.4454 50.4201 82.1083 50.0901 83.5527 49.43C84.9972 48.7699 86.128 47.8553 86.9452 46.686C87.7624 45.5167 88.1711 44.1683 88.1711 42.6407C88.1711 41.0943 87.7339 39.727 86.8597 38.5389C86.0044 37.3319 84.7691 36.389 83.1536 35.71C81.5572 35.0311 79.6566 34.6917 77.452 34.6917H72.0069V25.6959H77.452C79.3145 25.6959 80.9585 25.3753 82.3839 24.7341C83.8283 24.0929 84.9496 23.2065 85.7479 22.075C86.5461 20.9246 86.9452 19.5856 86.9452 18.058C86.9452 16.6058 86.5936 15.3329 85.8904 14.239C85.2062 13.1264 84.2369 12.2588 82.9826 11.6365C81.7472 11.0141 80.3028 10.703 78.6493 10.703C76.9769 10.703 75.4469 11.0047 74.0595 11.6082C72.6721 12.1928 71.5603 13.0321 70.7241 14.1259C69.8878 15.2197 69.4412 16.5021 69.3842 17.9731H57.5533C57.6103 14.6351 58.5701 11.6931 60.4326 9.1471C62.2952 6.60113 64.8039 4.6115 67.9588 3.17822C71.1327 1.72607 74.7152 1 78.7064 1C82.7355 1 86.261 1.72607 89.2829 3.17822C92.3047 4.63036 94.6519 6.5917 96.3244 9.06223C98.0159 11.5139 98.8521 14.2673 98.8331 17.3225C98.8521 20.5662 97.8353 23.2725 95.7827 25.4413C93.7492 27.6101 91.0979 28.9868 87.829 29.5714V30.024C92.1242 30.571 95.3931 32.0514 97.6358 34.4653C99.8974 36.8604 101.019 39.859 101 43.4611C101.019 46.7614 100.059 49.694 98.1204 52.2588C96.2009 54.8237 93.5496 56.8416 90.1666 58.3126C86.7837 59.7836 82.9066 60.5191 78.5353 60.5191Z" stroke="url(#paint0_linear_543_1100)" stroke-width="1.5"/>
<defs>
<linearGradient id="paint0_linear_543_1100" x1="-2.62967" y1="74.1653" x2="109.413" y2="44.4813" gradientUnits="userSpaceOnUse">
<stop offset="0.00591226" stop-color="#5F5DE5"/>
<stop offset="1" stop-color="#5FFFD8"/>
</linearGradient>
</defs>
</svg>
