<svg width="83" height="62" viewBox="0 0 83 62" fill="none" xmlns="http://www.w3.org/2000/svg">
<path d="M24.4735 61C19.5915 60.9811 15.3908 59.7836 11.8712 57.4074C8.37056 55.0311 5.67412 51.5893 3.78188 47.082C1.90856 42.5747 0.981361 37.1528 1.00028 30.8161C1.00028 24.4983 1.93694 19.1141 3.81026 14.6634C5.7025 10.2126 8.39894 6.82744 11.8996 4.50778C15.4192 2.16926 19.6105 1 24.4735 1C29.3366 1 33.5184 2.16926 37.0191 4.50778C40.5386 6.8463 43.2446 10.2409 45.1368 14.6917C47.029 19.1235 47.9657 24.4983 47.9468 30.8161C47.9468 37.1716 47.0006 42.603 45.1084 47.1103C43.2351 51.6176 40.5481 55.0594 37.0475 57.4356C33.5468 59.8119 29.3555 61 24.4735 61ZM24.4735 50.8444C27.8039 50.8444 30.4625 49.1754 32.4493 45.8373C34.4362 42.4993 35.4201 37.4922 35.4012 30.8161C35.4012 26.422 34.9471 22.7633 34.0388 19.8402C33.1494 16.917 31.8816 14.7199 30.2354 13.2489C28.6081 11.7779 26.6874 11.0424 24.4735 11.0424C21.1621 11.0424 18.513 12.6926 16.5261 15.9929C14.5393 19.2933 13.5364 24.2343 13.5175 30.8161C13.5175 35.2669 13.9621 38.9821 14.8515 41.9618C15.7598 44.9227 17.037 47.148 18.6833 48.6379C20.3295 50.1089 22.2596 50.8444 24.4735 50.8444ZM82 1.79208V59.727H69.7099V13.4187H69.3693L56.0574 21.7355V10.8727L70.4479 1.79208H82Z" stroke="white" stroke-width="1.5"/>
<path d="M24.4735 61C19.5915 60.9811 15.3908 59.7836 11.8712 57.4074C8.37056 55.0311 5.67412 51.5893 3.78188 47.082C1.90856 42.5747 0.981361 37.1528 1.00028 30.8161C1.00028 24.4983 1.93694 19.1141 3.81026 14.6634C5.7025 10.2126 8.39894 6.82744 11.8996 4.50778C15.4192 2.16926 19.6105 1 24.4735 1C29.3366 1 33.5184 2.16926 37.0191 4.50778C40.5386 6.8463 43.2446 10.2409 45.1368 14.6917C47.029 19.1235 47.9657 24.4983 47.9468 30.8161C47.9468 37.1716 47.0006 42.603 45.1084 47.1103C43.2351 51.6176 40.5481 55.0594 37.0475 57.4356C33.5468 59.8119 29.3555 61 24.4735 61ZM24.4735 50.8444C27.8039 50.8444 30.4625 49.1754 32.4493 45.8373C34.4362 42.4993 35.4201 37.4922 35.4012 30.8161C35.4012 26.422 34.9471 22.7633 34.0388 19.8402C33.1494 16.917 31.8816 14.7199 30.2354 13.2489C28.6081 11.7779 26.6874 11.0424 24.4735 11.0424C21.1621 11.0424 18.513 12.6926 16.5261 15.9929C14.5393 19.2933 13.5364 24.2343 13.5175 30.8161C13.5175 35.2669 13.9621 38.9821 14.8515 41.9618C15.7598 44.9227 17.037 47.148 18.6833 48.6379C20.3295 50.1089 22.2596 50.8444 24.4735 50.8444ZM82 1.79208V59.727H69.7099V13.4187H69.3693L56.0574 21.7355V10.8727L70.4479 1.79208H82Z" stroke="url(#paint0_linear_543_1098)" stroke-width="1.5"/>
<defs>
<linearGradient id="paint0_linear_543_1098" x1="-10.4974" y1="74.1653" x2="101.119" y2="44.7233" gradientUnits="userSpaceOnUse">
<stop offset="0.00591226" stop-color="#5F5DE5"/>
<stop offset="1" stop-color="#5FFFD8"/>
</linearGradient>
</defs>
</svg>
