<svg width="28" height="28" viewBox="0 0 28 28" fill="none" xmlns="http://www.w3.org/2000/svg">
<path fill-rule="evenodd" clip-rule="evenodd" d="M14 5.5363C11.3719 3.36898 7.43939 3.4948 4.96273 5.91378C2.34576 8.4698 2.34576 12.6172 4.96273 15.1732L14 24L23.0373 15.1732C25.6542 12.6172 25.6542 8.4698 23.0373 5.91378C20.5606 3.4948 16.6281 3.36898 14 5.5363ZM13.3407 6.99041C11.3262 5.02287 8.05688 5.02287 6.04242 6.99041C4.03237 8.95364 4.03237 12.1334 6.04242 14.0966L14 21.8688L21.9576 14.0966C23.9676 12.1334 23.9676 8.95364 21.9576 6.99041C19.9431 5.02287 16.6738 5.02287 14.6593 6.99041L14 7.63436L13.3407 6.99041Z" fill="white"/>
</svg>
