<svg width="28" height="28" viewBox="0 0 28 28" fill="none" xmlns="http://www.w3.org/2000/svg">
<path d="M17 5C17 6.65685 15.6569 8 14 8C12.3431 8 11 6.65685 11 5C11 3.34315 12.3431 2 14 2C15.6569 2 17 3.34315 17 5Z" fill="white"/>
<path d="M17 14C17 15.6569 15.6569 17 14 17C12.3431 17 11 15.6569 11 14C11 12.3431 12.3431 11 14 11C15.6569 11 17 12.3431 17 14Z" fill="white"/>
<path d="M17 23C17 24.6569 15.6569 26 14 26C12.3431 26 11 24.6569 11 23C11 21.3431 12.3431 20 14 20C15.6569 20 17 21.3431 17 23Z" fill="white"/>
</svg>
