<svg width="628" height="202" viewBox="0 0 628 202" fill="none" xmlns="http://www.w3.org/2000/svg">
<g filter="url(#filter0_d_404_1146)">
<rect x="24" y="8" width="100" height="67" rx="20" fill="#1F1F1F"/>
<path fill-rule="evenodd" clip-rule="evenodd" d="M71.2843 49.6841V41.1737H75.65C77.4389 41.1737 78.9489 40.5706 80.1798 39.3811L80.4752 39.0796C82.7237 36.6169 82.576 32.7805 80.1798 30.5021C78.9817 29.2959 77.3405 28.6425 75.65 28.676H68.6419V49.6841H71.2843ZM71.2846 38.5937V31.2559H75.7167C76.6687 31.2559 77.5715 31.6245 78.2446 32.2946C79.6727 33.7018 79.7055 36.0472 78.3266 37.5047C77.6536 38.2251 76.7016 38.6272 75.7167 38.5937H71.2846Z" fill="white"/>
<path fill-rule="evenodd" clip-rule="evenodd" d="M92.801 36.4326C91.6685 35.3772 90.1257 34.8411 88.1727 34.8411C85.6616 34.8411 83.7742 35.7793 82.5268 37.6388L84.8574 39.1298C85.7108 37.8566 86.8761 37.22 88.3532 37.22C89.2887 37.22 90.1914 37.5718 90.8971 38.2084C91.5864 38.8115 91.9803 39.6827 91.9803 40.6041V41.2239C90.9628 40.6543 89.6826 40.3528 88.107 40.3528C86.2688 40.3528 84.7917 40.7884 83.6921 41.6763C82.5925 42.5642 82.0345 43.7369 82.0345 45.2279C82.0016 46.5849 82.5761 47.8748 83.5936 48.746C84.6276 49.6842 85.9406 50.1532 87.4834 50.1532C89.3051 50.1532 90.7494 49.3323 91.849 47.6906H91.9639V49.6842H94.4914V40.8219C94.4914 38.9623 93.9334 37.4881 92.801 36.4326ZM85.6292 47.0372C85.0876 46.6351 84.7593 45.9818 84.7593 45.2781C84.7593 44.4907 85.1204 43.8374 85.8262 43.318C86.5485 42.7987 87.4513 42.5307 88.5183 42.5307C89.9956 42.5139 91.1447 42.849 91.9654 43.5191C91.9654 44.6583 91.5222 45.6467 90.6522 46.4843C89.8643 47.2885 88.7973 47.7408 87.6811 47.7408C86.9424 47.7576 86.2202 47.5063 85.6292 47.0372Z" fill="white"/>
<path d="M100.17 56L109 35.3102H106.128L102.041 45.63H101.992L97.8068 35.3102H94.9346L100.728 48.7628L97.4457 56H100.17Z" fill="white"/>
<path d="M62.1618 39.3308C62.1618 38.51 62.0962 37.6891 61.9649 36.8849H50.8209V41.5255H57.2053C56.9427 43.0165 56.0893 44.3567 54.8419 45.1944V48.2099H58.6496C60.8817 46.1158 62.1618 43.0165 62.1618 39.3308Z" fill="#4285F4"/>
<path d="M50.8214 51.1249C54.0054 51.1249 56.6965 50.0527 58.6496 48.2099L54.8419 45.1944C53.7751 45.9315 52.4134 46.3503 50.8214 46.3503C47.7358 46.3503 45.1263 44.2227 44.1908 41.3747H40.2682V44.4907C42.2705 48.5617 46.3572 51.1249 50.8214 51.1249Z" fill="#34A853"/>
<path d="M44.1908 41.3747C43.6983 39.8837 43.6988 38.2587 44.1912 36.751V33.6517H40.2681C38.5773 37.0525 38.5773 41.0732 40.2681 44.474L44.1908 41.3747Z" fill="#FBBC04"/>
<path d="M50.8214 31.7753C52.5118 31.7418 54.1367 32.3952 55.3512 33.5846L58.7321 30.1335C56.5821 28.0897 53.7592 26.9672 50.8214 27.0007C46.3572 27.0007 42.2704 29.5807 40.2681 33.6517L44.1908 36.7677C45.1263 33.9029 47.7358 31.7753 50.8214 31.7753Z" fill="#EA4335"/>
</g>
<g filter="url(#filter1_d_404_1146)">
<rect x="144" y="8" width="100" height="67" rx="20" fill="#1F1F1F"/>
<path d="M211.978 30.0303C210.748 29.5407 208.797 29 206.384 29C200.224 29 195.886 32.2952 195.86 37.0064C195.808 40.4823 198.965 42.4129 201.326 43.5719C203.74 44.7562 204.56 45.5292 204.56 46.5849C204.535 48.2061 202.61 48.9535 200.814 48.9535C198.324 48.9535 196.989 48.5682 194.962 47.6662L194.14 47.2795L193.267 52.712C194.73 53.3806 197.426 53.974 200.224 54C206.769 54 211.03 50.7557 211.08 45.7352C211.105 42.9803 209.438 40.8694 205.844 39.1444C203.663 38.0371 202.327 37.2904 202.327 36.1575C202.352 35.1275 203.457 34.0725 205.919 34.0725C207.947 34.0209 209.437 34.5099 210.566 34.9992L211.13 35.2562L211.978 30.0303Z" fill="#3362AB"/>
<path d="M189.367 53.6393H183.129L187.03 29.4387H193.268L189.367 53.6393Z" fill="#3362AB"/>
<path fill-rule="evenodd" clip-rule="evenodd" d="M227.968 29.4387H223.143C221.655 29.4387 220.525 29.876 219.883 31.4466L210.618 53.639H217.163C217.163 53.639 218.24 50.6521 218.472 50.0087H226.48C226.659 50.8584 227.225 53.639 227.225 53.639H233L227.968 29.4387ZM220.268 45.0659C220.782 43.6756 222.759 38.2948 222.759 38.2948C222.748 38.3155 222.829 38.0919 222.949 37.7585L222.95 37.7545L222.951 37.7518C223.13 37.2539 223.396 36.5148 223.579 35.9778L224.015 38.0631C224.015 38.0631 225.197 43.8559 225.453 45.0659H220.268Z" fill="#3362AB"/>
<path d="M177.919 29.4387L171.811 45.9412L171.143 42.5943L171.142 42.5922L168.961 31.473C168.602 29.9273 167.499 29.4897 166.138 29.4387H156.103L156 29.9277C158.448 30.5556 160.637 31.4604 162.555 32.5854L168.115 53.6137H174.711L184.515 29.4387H177.919Z" fill="#3362AB"/>
</g>
<g filter="url(#filter2_d_404_1146)">
<rect x="264" y="8" width="100" height="67" rx="20" fill="#1F1F1F"/>
<path fill-rule="evenodd" clip-rule="evenodd" d="M288.345 32.3806C289.657 32.491 290.97 31.7184 291.79 30.7388C292.597 29.7317 293.13 28.3796 292.994 27C291.831 27.0552 290.396 27.7726 289.575 28.7797C288.823 29.6489 288.181 31.0561 288.345 32.3806ZM303.96 50.1503V28.6418H311.959C316.088 28.6418 318.973 31.5114 318.973 35.7055C318.973 39.8996 316.033 42.7969 311.849 42.7969H307.269V50.1503H303.96ZM292.98 32.6427C291.823 32.5755 290.768 32.9936 289.916 33.3313C289.368 33.5486 288.903 33.7326 288.55 33.7326C288.153 33.7326 287.67 33.5388 287.127 33.3211C286.415 33.0359 285.602 32.7098 284.748 32.7255C282.793 32.7531 280.975 33.8706 279.976 35.6503C277.925 39.2098 279.443 44.48 281.426 47.3772C282.397 48.8121 283.559 50.3849 285.09 50.3297C285.764 50.304 286.249 50.0965 286.75 49.8818C287.328 49.6345 287.928 49.3777 288.864 49.3777C289.768 49.3777 290.342 49.6279 290.893 49.868C291.416 50.0963 291.919 50.3155 292.665 50.3021C294.252 50.2745 295.25 48.8673 296.22 47.4324C297.268 45.8925 297.729 44.3896 297.798 44.1615C297.802 44.1485 297.805 44.1396 297.807 44.1351C297.805 44.1334 297.792 44.1274 297.769 44.1169C297.419 43.9551 294.742 42.7186 294.716 39.4029C294.691 36.6199 296.84 35.2098 297.178 34.9879C297.198 34.9744 297.212 34.9652 297.219 34.9605C295.851 32.9186 293.718 32.6979 292.98 32.6427ZM325.017 50.3159C327.095 50.3159 329.023 49.2536 329.898 47.5704H329.967V50.1503H333.03V39.4443C333.03 36.3401 330.568 34.3397 326.781 34.3397C323.267 34.3397 320.669 36.3677 320.573 39.1546H323.554C323.8 37.8302 325.017 36.961 326.685 36.961C328.709 36.961 329.844 37.9129 329.844 39.6651V40.8516L325.714 41.0999C321.872 41.3344 319.794 42.921 319.794 45.6803C319.794 48.4672 321.94 50.3159 325.017 50.3159ZM325.906 47.7636C324.142 47.7636 323.02 46.9082 323.02 45.5975C323.02 44.2455 324.101 43.4591 326.165 43.3349L329.843 43.1004V44.3145C329.843 46.3287 328.148 47.7636 325.906 47.7636ZM343.189 50.9919C341.862 54.7583 340.345 56 337.118 56C336.872 56 336.051 55.9724 335.86 55.9172V53.3373C336.065 53.3649 336.571 53.3925 336.831 53.3925C338.294 53.3925 339.114 52.7716 339.62 51.1575L339.921 50.2055L334.315 34.5466H337.774L341.671 47.2531H341.739L345.636 34.5466H349L343.189 50.9919ZM307.268 31.4562H311.083C313.955 31.4562 315.596 33.0014 315.596 35.7193C315.596 38.4372 313.955 39.9962 311.07 39.9962H307.268V31.4562Z" fill="white"/>
</g>
<g filter="url(#filter3_d_404_1146)">
<rect x="384" y="8" width="100" height="67" rx="20" fill="#1F1F1F"/>
<path d="M468 41.5C468 52.8319 458.741 61.9999 447.296 61.9999C442.465 61.9999 438.037 60.3485 434.529 57.6152C439.36 53.8569 442.408 48.0486 442.408 41.5C442.408 34.9514 439.302 29.143 434.529 25.3847C438.037 22.6514 442.465 21 447.296 21C458.741 21 468 30.225 468 41.5Z" fill="#F79E1B"/>
<path d="M434.529 25.3847C434.529 25.3847 434.529 25.3847 434.529 25.3847C439.302 29.143 442.408 34.9514 442.408 41.5C442.408 48.0486 439.36 53.8569 434.529 57.6152L434.471 57.6152C429.698 53.9138 426.592 48.0486 426.592 41.5001C426.592 34.9515 429.698 29.1432 434.471 25.3848C434.471 25.3848 434.471 25.3849 434.471 25.3848L434.529 25.3847Z" fill="#FF5F00"/>
<path d="M426.592 41.5001C426.592 34.9515 429.698 29.1432 434.471 25.3848C430.963 22.6515 426.535 21.0001 421.704 21.0001C410.259 21.0001 401 30.1681 401 41.5C401 52.832 410.259 62 421.704 62C426.535 62 430.963 60.3485 434.471 57.6152C429.698 53.9138 426.592 48.0486 426.592 41.5001Z" fill="#EB001B"/>
</g>
<g filter="url(#filter4_d_404_1146)">
<rect x="504" y="8" width="100" height="67" rx="20" fill="#1F1F1F"/>
<path d="M588 41.5C588 52.8319 578.741 61.9999 567.296 61.9999C562.465 61.9999 558.037 60.3485 554.529 57.6152C559.36 53.8569 562.408 48.0486 562.408 41.5C562.408 34.9514 559.302 29.143 554.529 25.3847C558.037 22.6514 562.465 21 567.296 21C578.741 21 588 30.225 588 41.5Z" fill="#0099DF"/>
<path d="M554.529 25.3847C554.529 25.3847 554.529 25.3847 554.529 25.3847C559.302 29.143 562.408 34.9514 562.408 41.5C562.408 48.0486 559.36 53.8569 554.529 57.6152L554.471 57.6152C549.698 53.9138 546.592 48.0486 546.592 41.5001C546.592 34.9515 549.698 29.1432 554.471 25.3848C554.471 25.3848 554.471 25.3849 554.471 25.3848L554.529 25.3847Z" fill="#6C6BBD"/>
<path d="M546.592 41.5001C546.592 34.9515 549.698 29.1432 554.471 25.3848C550.963 22.6515 546.535 21.0001 541.704 21.0001C530.259 21.0001 521 30.1681 521 41.5C521 52.832 530.259 62 541.704 62C546.535 62 550.963 60.3485 554.471 57.6152C549.698 53.9138 546.592 48.0486 546.592 41.5001Z" fill="#EB001B"/>
</g>
<g filter="url(#filter5_d_404_1146)">
<rect x="84" y="95" width="100" height="67" rx="20" fill="#1F1F1F"/>
<path d="M138.635 151C150.328 151.057 161 141.192 161 129.19C161 116.067 150.328 106.995 138.635 107H128.572C116.74 106.995 107 116.07 107 129.19C107 141.194 116.74 151.057 128.572 151H138.635Z" fill="#0079BE"/>
<path d="M128.62 108.819C117.807 108.822 109.046 117.836 109.043 128.96C109.046 140.083 117.807 149.097 128.62 149.1C139.434 149.097 148.198 140.083 148.2 128.96C148.198 117.836 139.435 108.822 128.62 108.819ZM116.211 128.96C116.209 126.388 116.968 123.875 118.389 121.75C119.811 119.624 121.828 117.985 124.178 117.047V140.872C121.828 139.934 119.81 138.296 118.389 136.17C116.968 134.045 116.209 131.532 116.211 128.96ZM133.061 140.877V117.046C135.413 117.983 137.432 119.621 138.854 121.748C140.276 123.874 141.035 126.388 141.032 128.961C141.035 131.534 140.276 134.048 138.853 136.175C137.431 138.301 135.412 139.939 133.061 140.877Z" fill="#1F1F1F"/>
</g>
<g filter="url(#filter6_d_404_1146)">
<rect x="204" y="95" width="100" height="67" rx="20" fill="#1F1F1F"/>
<path d="M249 162L304 146V153.65C304 158.262 300.262 162 295.65 162H249Z" fill="#FD6020"/>
<path fill-rule="evenodd" clip-rule="evenodd" d="M289.262 122.31C292.282 122.31 293.943 123.664 293.943 126.222C294.094 128.177 292.735 129.832 290.923 130.133L295 135.699H291.829L288.355 130.283H288.053V135.699H285.486V122.31H289.262ZM288.053 128.478H288.808C290.47 128.478 291.225 127.726 291.225 126.372C291.225 125.169 290.47 124.416 288.808 124.416H288.053V128.478ZM276.576 135.699H283.825V133.443H279.144V129.832H283.674V127.576H279.144V124.567H283.825V122.31H276.576V135.699ZM269.026 131.337L265.552 122.31H262.834L268.422 136H269.781L275.368 122.31H272.65L269.026 131.337ZM238.37 129.08C238.37 132.841 241.39 136 245.166 136C246.374 136 247.431 135.699 248.488 135.248V132.239C247.733 133.142 246.676 133.743 245.468 133.743C243.052 133.743 241.088 131.938 241.088 129.531V129.23C240.937 126.823 242.901 124.717 245.317 124.567C246.525 124.567 247.733 125.169 248.488 126.071V123.063C247.582 122.461 246.374 122.31 245.317 122.31C241.39 122.01 238.37 125.169 238.37 129.08ZM233.689 127.425C232.179 126.823 231.726 126.523 231.726 125.77C231.877 124.868 232.632 124.116 233.538 124.266C234.293 124.266 235.048 124.717 235.652 125.319L237.011 123.514C235.954 122.611 234.595 122.01 233.236 122.01C231.122 121.859 229.309 123.514 229.158 125.62V125.77C229.158 127.576 229.913 128.629 232.33 129.381C232.934 129.531 233.538 129.832 234.142 130.133C234.595 130.434 234.897 130.885 234.897 131.487C234.897 132.54 233.991 133.443 233.085 133.443H232.934C231.726 133.443 230.669 132.69 230.215 131.637L228.554 133.292C229.46 134.947 231.273 135.85 233.085 135.85C235.501 136 237.464 134.195 237.615 131.788V131.337C237.464 129.531 236.709 128.629 233.689 127.425ZM224.93 135.699H227.497V122.31H224.93V135.699ZM213 122.31H217.53C221.155 122.461 224.024 125.47 223.873 129.08C223.873 131.036 222.967 132.841 221.457 134.195C220.098 135.248 218.436 135.85 216.775 135.699H213V122.31ZM216.322 133.443C217.53 133.593 218.889 133.142 219.796 132.39C220.702 131.487 221.155 130.283 221.155 128.93C221.155 127.726 220.702 126.523 219.796 125.62C218.889 124.868 217.53 124.416 216.322 124.567H215.567V133.443H216.322Z" fill="white"/>
<path fill-rule="evenodd" clip-rule="evenodd" d="M256.19 122C252.414 122 249.243 125.009 249.243 128.92C249.243 132.681 252.263 135.84 256.19 135.99C260.116 136.141 263.136 132.982 263.287 129.07C263.136 125.159 260.116 122 256.19 122Z" fill="#FD6020"/>
</g>
<g filter="url(#filter7_d_404_1146)">
<rect x="324" y="95" width="100" height="67" rx="20" fill="#1F1F1F"/>
<path d="M387.476 119.268C386.771 119.264 386.073 119.401 385.421 119.672C384.769 119.942 384.175 120.34 383.675 120.844L383.425 119.594H379.161V143L384.014 141.931V136.261C384.979 137.082 386.199 137.531 387.458 137.529C390.919 137.529 394.095 134.649 394.095 128.272C394.095 122.438 390.884 119.268 387.476 119.268ZM386.316 133.091C385.89 133.115 385.464 133.044 385.069 132.881C384.674 132.718 384.32 132.468 384.032 132.149V124.703C384.321 124.372 384.68 124.111 385.081 123.938C385.482 123.766 385.916 123.687 386.352 123.707C388.136 123.707 389.349 125.754 389.349 128.38C389.349 131.007 388.118 133.091 386.316 133.091Z" fill="#6772E5"/>
<path d="M403.052 119.268C398.377 119.268 395.54 123.362 395.54 128.525C395.54 134.63 398.895 137.728 403.676 137.728C405.543 137.759 407.385 137.304 409.029 136.406V132.33C407.536 133.094 405.883 133.48 404.212 133.453C402.285 133.453 400.643 132.746 400.393 130.373H409.993C409.993 130.101 409.993 129.033 409.993 128.562C410.153 123.362 407.727 119.268 403.052 119.268ZM400.429 126.641C400.429 124.359 401.803 123.399 403.016 123.399C404.23 123.399 405.514 124.359 405.514 126.641H400.429Z" fill="#6772E5"/>
<path d="M366.065 120.953L365.762 119.467H361.622V137.058H366.404V125.138C366.836 124.605 367.417 124.219 368.071 124.032C368.725 123.844 369.419 123.863 370.062 124.087V119.467C369.332 119.177 368.522 119.168 367.786 119.441C367.05 119.715 366.438 120.253 366.065 120.953Z" fill="#6772E5"/>
<path d="M341.907 124.757C341.907 123.96 342.549 123.652 343.566 123.652C345.251 123.689 346.904 124.136 348.383 124.957V120.192C346.853 119.564 345.216 119.25 343.566 119.268C339.623 119.268 337 121.406 337 124.993C337 130.609 344.387 129.703 344.387 132.112C344.387 133.054 343.602 133.362 342.602 133.362C340.717 133.25 338.884 132.692 337.25 131.732V136.605C338.934 137.368 340.758 137.763 342.602 137.764C346.635 137.764 349.418 135.681 349.418 132.04C349.329 125.953 341.907 127.04 341.907 124.757Z" fill="#6772E5"/>
<path d="M355.859 115.301L351.131 116.351V132.529C351.107 133.211 351.219 133.89 351.463 134.526C351.706 135.162 352.074 135.741 352.545 136.228C353.016 136.715 353.579 137.099 354.201 137.357C354.823 137.615 355.491 137.741 356.163 137.728C357.335 137.781 358.503 137.552 359.57 137.058V132.982C358.946 133.254 355.895 134.178 355.895 131.17V123.924H359.57V119.685H355.895L355.859 115.301Z" fill="#6772E5"/>
<path d="M371.864 117.946L376.735 116.913V113L371.864 114.033V117.946Z" fill="#6772E5"/>
<path d="M376.735 119.594H371.864V137.058H376.735V119.594Z" fill="#6772E5"/>
</g>
<g filter="url(#filter8_d_404_1146)">
<rect x="444" y="95" width="100" height="67" rx="20" fill="#1F1F1F"/>
<path fill-rule="evenodd" clip-rule="evenodd" d="M469.56 120.002H464.66C464.324 120.002 464.039 120.249 463.987 120.584L462.005 133.307C461.966 133.558 462.158 133.785 462.409 133.785H464.749C465.084 133.785 465.369 133.538 465.421 133.202L465.956 129.77C466.008 129.434 466.293 129.188 466.628 129.188H468.179C471.407 129.188 473.27 127.606 473.757 124.472C473.976 123.101 473.766 122.023 473.132 121.269C472.435 120.44 471.2 120.002 469.56 120.002ZM470.125 124.649C469.857 126.429 468.514 126.429 467.215 126.429H466.475L466.994 123.104C467.025 122.903 467.197 122.755 467.398 122.755H467.736C468.621 122.755 469.456 122.755 469.887 123.266C470.144 123.571 470.223 124.023 470.125 124.649ZM484.208 124.592H481.861C481.661 124.592 481.488 124.74 481.457 124.941L481.354 125.605L481.19 125.365C480.682 124.618 479.549 124.368 478.418 124.368C475.825 124.368 473.61 126.357 473.179 129.147C472.955 130.538 473.274 131.869 474.053 132.797C474.768 133.65 475.792 134.005 477.009 134.005C479.098 134.005 480.257 132.645 480.257 132.645L480.152 133.305C480.113 133.558 480.305 133.784 480.555 133.784H482.668C483.005 133.784 483.288 133.537 483.341 133.202L484.609 125.069C484.65 124.819 484.458 124.592 484.208 124.592ZM480.937 129.216C480.71 130.574 479.646 131.485 478.289 131.485C477.608 131.485 477.063 131.264 476.714 130.844C476.367 130.428 476.235 129.835 476.345 129.175C476.557 127.829 477.639 126.888 478.975 126.888C479.641 126.888 480.183 127.112 480.54 127.535C480.897 127.963 481.039 128.559 480.937 129.216ZM494.347 124.591H496.705C497.035 124.591 497.228 124.966 497.04 125.241L489.197 136.704C489.07 136.89 488.861 137 488.638 137H486.283C485.951 137 485.757 136.622 485.949 136.347L488.391 132.857L485.794 125.138C485.704 124.87 485.9 124.591 486.182 124.591H488.499C488.8 124.591 489.065 124.792 489.152 125.083L490.531 129.745L493.783 124.894C493.91 124.705 494.122 124.591 494.347 124.591Z" fill="#253B80"/>
<path fill-rule="evenodd" clip-rule="evenodd" d="M519.914 133.306L521.925 120.35C521.956 120.149 522.128 120.001 522.328 120H524.592C524.842 120 525.034 120.227 524.995 120.478L523.012 133.201C522.96 133.537 522.675 133.783 522.339 133.783H520.317C520.067 133.783 519.875 133.557 519.914 133.306ZM504.513 120.001H499.612C499.278 120.001 498.992 120.247 498.94 120.583L496.958 133.306C496.919 133.557 497.111 133.783 497.361 133.783H499.876C500.11 133.783 500.309 133.611 500.346 133.376L500.908 129.769C500.96 129.433 501.246 129.187 501.58 129.187H503.131C506.359 129.187 508.222 127.605 508.709 124.471C508.929 123.1 508.718 122.022 508.084 121.267C507.388 120.439 506.153 120.001 504.513 120.001ZM505.078 124.648C504.811 126.428 503.468 126.428 502.168 126.428H501.429L501.949 123.103C501.98 122.902 502.15 122.754 502.351 122.754H502.69C503.574 122.754 504.41 122.754 504.841 123.265C505.098 123.57 505.177 124.022 505.078 124.648ZM519.159 124.591H516.815C516.613 124.591 516.442 124.739 516.412 124.94L516.308 125.604L516.143 125.364C515.635 124.617 514.503 124.367 513.372 124.367C510.779 124.367 508.565 126.356 508.134 129.146C507.91 130.537 508.228 131.868 509.007 132.796C509.724 133.649 510.746 134.004 511.963 134.004C514.052 134.004 515.211 132.644 515.211 132.644L515.106 133.304C515.067 133.557 515.259 133.783 515.51 133.783H517.623C517.958 133.783 518.243 133.536 518.295 133.201L519.564 125.068C519.603 124.818 519.411 124.591 519.159 124.591ZM515.889 129.215C515.664 130.573 514.598 131.484 513.241 131.484C512.561 131.484 512.015 131.263 511.666 130.843C511.319 130.427 511.188 129.834 511.297 129.174C511.51 127.828 512.591 126.887 513.927 126.887C514.593 126.887 515.135 127.111 515.492 127.534C515.851 127.962 515.993 128.558 515.889 129.215Z" fill="#179BD7"/>
</g>
<defs>
<filter id="filter0_d_404_1146" x="0" y="0" width="148" height="115" filterUnits="userSpaceOnUse" color-interpolation-filters="sRGB">
<feFlood flood-opacity="0" result="BackgroundImageFix"/>
<feColorMatrix in="SourceAlpha" type="matrix" values="0 0 0 0 0 0 0 0 0 0 0 0 0 0 0 0 0 0 127 0" result="hardAlpha"/>
<feOffset dy="16"/>
<feGaussianBlur stdDeviation="12"/>
<feComposite in2="hardAlpha" operator="out"/>
<feColorMatrix type="matrix" values="0 0 0 0 0 0 0 0 0 0 0 0 0 0 0 0 0 0 0.08 0"/>
<feBlend mode="normal" in2="BackgroundImageFix" result="effect1_dropShadow_404_1146"/>
<feBlend mode="normal" in="SourceGraphic" in2="effect1_dropShadow_404_1146" result="shape"/>
</filter>
<filter id="filter1_d_404_1146" x="120" y="0" width="148" height="115" filterUnits="userSpaceOnUse" color-interpolation-filters="sRGB">
<feFlood flood-opacity="0" result="BackgroundImageFix"/>
<feColorMatrix in="SourceAlpha" type="matrix" values="0 0 0 0 0 0 0 0 0 0 0 0 0 0 0 0 0 0 127 0" result="hardAlpha"/>
<feOffset dy="16"/>
<feGaussianBlur stdDeviation="12"/>
<feComposite in2="hardAlpha" operator="out"/>
<feColorMatrix type="matrix" values="0 0 0 0 0 0 0 0 0 0 0 0 0 0 0 0 0 0 0.08 0"/>
<feBlend mode="normal" in2="BackgroundImageFix" result="effect1_dropShadow_404_1146"/>
<feBlend mode="normal" in="SourceGraphic" in2="effect1_dropShadow_404_1146" result="shape"/>
</filter>
<filter id="filter2_d_404_1146" x="240" y="0" width="148" height="115" filterUnits="userSpaceOnUse" color-interpolation-filters="sRGB">
<feFlood flood-opacity="0" result="BackgroundImageFix"/>
<feColorMatrix in="SourceAlpha" type="matrix" values="0 0 0 0 0 0 0 0 0 0 0 0 0 0 0 0 0 0 127 0" result="hardAlpha"/>
<feOffset dy="16"/>
<feGaussianBlur stdDeviation="12"/>
<feComposite in2="hardAlpha" operator="out"/>
<feColorMatrix type="matrix" values="0 0 0 0 0 0 0 0 0 0 0 0 0 0 0 0 0 0 0.08 0"/>
<feBlend mode="normal" in2="BackgroundImageFix" result="effect1_dropShadow_404_1146"/>
<feBlend mode="normal" in="SourceGraphic" in2="effect1_dropShadow_404_1146" result="shape"/>
</filter>
<filter id="filter3_d_404_1146" x="360" y="0" width="148" height="115" filterUnits="userSpaceOnUse" color-interpolation-filters="sRGB">
<feFlood flood-opacity="0" result="BackgroundImageFix"/>
<feColorMatrix in="SourceAlpha" type="matrix" values="0 0 0 0 0 0 0 0 0 0 0 0 0 0 0 0 0 0 127 0" result="hardAlpha"/>
<feOffset dy="16"/>
<feGaussianBlur stdDeviation="12"/>
<feComposite in2="hardAlpha" operator="out"/>
<feColorMatrix type="matrix" values="0 0 0 0 0 0 0 0 0 0 0 0 0 0 0 0 0 0 0.08 0"/>
<feBlend mode="normal" in2="BackgroundImageFix" result="effect1_dropShadow_404_1146"/>
<feBlend mode="normal" in="SourceGraphic" in2="effect1_dropShadow_404_1146" result="shape"/>
</filter>
<filter id="filter4_d_404_1146" x="480" y="0" width="148" height="115" filterUnits="userSpaceOnUse" color-interpolation-filters="sRGB">
<feFlood flood-opacity="0" result="BackgroundImageFix"/>
<feColorMatrix in="SourceAlpha" type="matrix" values="0 0 0 0 0 0 0 0 0 0 0 0 0 0 0 0 0 0 127 0" result="hardAlpha"/>
<feOffset dy="16"/>
<feGaussianBlur stdDeviation="12"/>
<feComposite in2="hardAlpha" operator="out"/>
<feColorMatrix type="matrix" values="0 0 0 0 0 0 0 0 0 0 0 0 0 0 0 0 0 0 0.08 0"/>
<feBlend mode="normal" in2="BackgroundImageFix" result="effect1_dropShadow_404_1146"/>
<feBlend mode="normal" in="SourceGraphic" in2="effect1_dropShadow_404_1146" result="shape"/>
</filter>
<filter id="filter5_d_404_1146" x="60" y="87" width="148" height="115" filterUnits="userSpaceOnUse" color-interpolation-filters="sRGB">
<feFlood flood-opacity="0" result="BackgroundImageFix"/>
<feColorMatrix in="SourceAlpha" type="matrix" values="0 0 0 0 0 0 0 0 0 0 0 0 0 0 0 0 0 0 127 0" result="hardAlpha"/>
<feOffset dy="16"/>
<feGaussianBlur stdDeviation="12"/>
<feComposite in2="hardAlpha" operator="out"/>
<feColorMatrix type="matrix" values="0 0 0 0 0 0 0 0 0 0 0 0 0 0 0 0 0 0 0.08 0"/>
<feBlend mode="normal" in2="BackgroundImageFix" result="effect1_dropShadow_404_1146"/>
<feBlend mode="normal" in="SourceGraphic" in2="effect1_dropShadow_404_1146" result="shape"/>
</filter>
<filter id="filter6_d_404_1146" x="180" y="87" width="148" height="115" filterUnits="userSpaceOnUse" color-interpolation-filters="sRGB">
<feFlood flood-opacity="0" result="BackgroundImageFix"/>
<feColorMatrix in="SourceAlpha" type="matrix" values="0 0 0 0 0 0 0 0 0 0 0 0 0 0 0 0 0 0 127 0" result="hardAlpha"/>
<feOffset dy="16"/>
<feGaussianBlur stdDeviation="12"/>
<feComposite in2="hardAlpha" operator="out"/>
<feColorMatrix type="matrix" values="0 0 0 0 0 0 0 0 0 0 0 0 0 0 0 0 0 0 0.08 0"/>
<feBlend mode="normal" in2="BackgroundImageFix" result="effect1_dropShadow_404_1146"/>
<feBlend mode="normal" in="SourceGraphic" in2="effect1_dropShadow_404_1146" result="shape"/>
</filter>
<filter id="filter7_d_404_1146" x="300" y="87" width="148" height="115" filterUnits="userSpaceOnUse" color-interpolation-filters="sRGB">
<feFlood flood-opacity="0" result="BackgroundImageFix"/>
<feColorMatrix in="SourceAlpha" type="matrix" values="0 0 0 0 0 0 0 0 0 0 0 0 0 0 0 0 0 0 127 0" result="hardAlpha"/>
<feOffset dy="16"/>
<feGaussianBlur stdDeviation="12"/>
<feComposite in2="hardAlpha" operator="out"/>
<feColorMatrix type="matrix" values="0 0 0 0 0 0 0 0 0 0 0 0 0 0 0 0 0 0 0.08 0"/>
<feBlend mode="normal" in2="BackgroundImageFix" result="effect1_dropShadow_404_1146"/>
<feBlend mode="normal" in="SourceGraphic" in2="effect1_dropShadow_404_1146" result="shape"/>
</filter>
<filter id="filter8_d_404_1146" x="420" y="87" width="148" height="115" filterUnits="userSpaceOnUse" color-interpolation-filters="sRGB">
<feFlood flood-opacity="0" result="BackgroundImageFix"/>
<feColorMatrix in="SourceAlpha" type="matrix" values="0 0 0 0 0 0 0 0 0 0 0 0 0 0 0 0 0 0 127 0" result="hardAlpha"/>
<feOffset dy="16"/>
<feGaussianBlur stdDeviation="12"/>
<feComposite in2="hardAlpha" operator="out"/>
<feColorMatrix type="matrix" values="0 0 0 0 0 0 0 0 0 0 0 0 0 0 0 0 0 0 0.08 0"/>
<feBlend mode="normal" in2="BackgroundImageFix" result="effect1_dropShadow_404_1146"/>
<feBlend mode="normal" in="SourceGraphic" in2="effect1_dropShadow_404_1146" result="shape"/>
</filter>
</defs>
</svg>
