<svg width="28" height="28" viewBox="0 0 28 28" fill="none" xmlns="http://www.w3.org/2000/svg">
<path fill-rule="evenodd" clip-rule="evenodd" d="M7.1025 4.51604C6.9954 4.50778 6.85177 4.50728 6.60622 4.50728H4.7357C4.32938 4.50728 4 4.16986 4 3.75364C4 3.33742 4.32938 3 4.7357 3H6.60622C6.61387 3 6.62151 3 6.62912 3C6.84396 2.99998 7.0439 2.99997 7.21302 3.01302C7.39736 3.02724 7.59712 3.05971 7.80013 3.15244C8.09432 3.28682 8.34567 3.50328 8.52544 3.77708C8.64949 3.96602 8.71503 4.16203 8.76037 4.34562C8.80198 4.51405 8.83631 4.71583 8.8732 4.93264L9.20279 6.86872L20.5778 8.15374C21.0483 8.20688 21.4429 8.25145 21.7649 8.31402C22.1022 8.37955 22.4156 8.47423 22.7081 8.65717C23.1598 8.93967 23.5204 9.35205 23.745 9.84296C23.8905 10.1608 23.948 10.4903 23.9746 10.8409C24 11.1756 24 11.5823 24 12.0672V13.0613C24 13.5981 24 14.0462 23.9708 14.4122C23.9404 14.7939 23.8745 15.1523 23.706 15.4912C23.4474 16.0111 23.0347 16.4339 22.5271 16.6988C22.1963 16.8715 21.8464 16.9389 21.4738 16.9701C21.1165 17 20.6792 17 20.1552 17H12.6645C12.2183 17 11.843 17 11.533 16.9761C11.2075 16.951 10.9015 16.8967 10.6031 16.7605C10.1408 16.5493 9.74585 16.2091 9.46335 15.7789C9.28104 15.5012 9.1763 15.2016 9.09624 14.8775C9.01997 14.5688 8.95552 14.1901 8.87886 13.7398L7.42762 5.21467C7.38543 4.96688 7.36028 4.82201 7.33394 4.71536C7.31783 4.65013 7.30673 4.6236 7.30341 4.61662C7.27818 4.57885 7.24335 4.54886 7.20269 4.52989C7.19541 4.52773 7.168 4.52109 7.1025 4.51604ZM7.20479 4.53059C7.20475 4.5306 7.20372 4.53029 7.20269 4.52989ZM7.30237 4.61463C7.30238 4.61459 7.30287 4.61552 7.30341 4.61662ZM9.46599 8.41487L10.3238 13.4538C10.4063 13.9382 10.4616 14.2606 10.5227 14.5078C10.5815 14.7458 10.6335 14.8604 10.6843 14.9377C10.8127 15.1332 10.9922 15.2879 11.2024 15.3838C11.2854 15.4218 11.4046 15.4546 11.6435 15.4731C11.8917 15.4922 12.2113 15.4927 12.6913 15.4927H20.1253C20.6868 15.4927 21.0637 15.4921 21.354 15.4678C21.6356 15.4443 21.7703 15.4022 21.8591 15.3558C22.0898 15.2354 22.2774 15.0432 22.395 14.8069C22.4402 14.7159 22.4813 14.5779 22.5043 14.2894C22.528 13.9921 22.5286 13.606 22.5286 13.0308V12.0958C22.5286 11.5749 22.5281 11.2271 22.5076 10.9578C22.4879 10.6978 22.4527 10.57 22.4127 10.4826C22.3106 10.2595 22.1467 10.072 21.9414 9.94364C21.8609 9.89333 21.7408 9.84348 21.4907 9.79489C21.2316 9.74455 20.8943 9.7059 20.3888 9.6488L9.46599 8.41487Z" fill="white"/>
<path fill-rule="evenodd" clip-rule="evenodd" d="M12 20.5452C11.1929 20.5452 10.5421 21.1985 10.5421 22C10.5421 22.8015 11.1929 23.4548 12 23.4548C12.8071 23.4548 13.4579 22.8015 13.4579 22C13.4579 21.1985 12.8071 20.5452 12 20.5452ZM9 22C9 20.3412 10.3451 19 12 19C13.6549 19 15 20.3412 15 22C15 23.6588 13.6549 25 12 25C10.3451 25 9 23.6588 9 22Z" fill="white"/>
<path fill-rule="evenodd" clip-rule="evenodd" d="M21 20.5452C20.1929 20.5452 19.5421 21.1985 19.5421 22C19.5421 22.8015 20.1929 23.4548 21 23.4548C21.8071 23.4548 22.4579 22.8015 22.4579 22C22.4579 21.1985 21.8071 20.5452 21 20.5452ZM18 22C18 20.3412 19.3451 19 21 19C22.6549 19 24 20.3412 24 22C24 23.6588 22.6549 25 21 25C19.3451 25 18 23.6588 18 22Z" fill="white"/>
</svg>
