<svg width="99" height="62" viewBox="0 0 99 62" fill="none" xmlns="http://www.w3.org/2000/svg">
<path d="M24.4372 61C19.5628 60.9811 15.3685 59.7836 11.8544 57.4074C8.35916 55.0311 5.66689 51.5893 3.77757 47.082C1.90715 42.5747 0.98139 37.1528 1.00028 30.8161C1.00028 24.4983 1.93549 19.1141 3.80591 14.6634C5.69523 10.2126 8.3875 6.82744 11.8827 4.50778C15.3969 2.16926 19.5817 1 24.4372 1C29.2928 1 33.4681 2.16926 36.9634 4.50778C40.4775 6.8463 43.1792 10.2409 45.0685 14.6917C46.9578 19.1235 47.893 24.4983 47.8742 30.8161C47.8742 37.1716 46.9295 42.603 45.0402 47.1103C43.1698 51.6176 40.4869 55.0594 36.9917 57.4356C33.4965 59.8119 29.3116 61 24.4372 61ZM24.4372 50.8444C27.7624 50.8444 30.4169 49.1754 32.4007 45.8373C34.3845 42.4993 35.3669 37.4922 35.348 30.8161C35.348 26.422 34.8946 22.7633 33.9877 19.8402C33.0997 16.917 31.8339 14.7199 30.1902 13.2489C28.5654 11.7779 26.6477 11.0424 24.4372 11.0424C21.1309 11.0424 18.4859 12.6926 16.5021 15.9929C14.5183 19.2933 13.517 24.2343 13.4981 30.8161C13.4981 35.2669 13.9421 38.9821 14.8301 41.9618C15.7369 44.9227 17.0122 47.148 18.6559 48.6379C20.2996 50.1089 22.2267 50.8444 24.4372 50.8444ZM56.624 59.727V50.901L77.2837 31.8062C79.0407 30.1089 80.5144 28.5813 81.7047 27.2235C82.9138 25.8656 83.8302 24.5361 84.4536 23.2348C85.0771 21.9147 85.3888 20.4908 85.3888 18.9632C85.3888 17.2659 85.0015 15.8043 84.2269 14.5785C83.4523 13.3338 82.3943 12.3814 81.0529 11.7214C79.7114 11.0424 78.1906 10.703 76.4902 10.703C74.7142 10.703 73.165 11.0613 71.8425 11.7779C70.5199 12.4946 69.4997 13.5224 68.7818 14.8614C68.0638 16.2004 67.7049 17.794 67.7049 19.6421H56.0572C56.0572 15.8515 56.9169 12.5606 58.6362 9.76945C60.3554 6.97831 62.7643 4.81895 65.8628 3.29137C68.9613 1.76379 72.5321 1 76.5752 1C80.7317 1 84.3497 1.7355 87.4293 3.20651C90.5278 4.65865 92.9366 6.67657 94.6559 9.26025C96.3752 11.8439 97.2348 14.8048 97.2348 18.1429C97.2348 20.3305 96.8003 22.4899 95.9312 24.6209C95.081 26.752 93.5601 29.1188 91.3685 31.7214C89.1769 34.305 86.0879 37.4074 82.1014 41.0283L73.6279 49.3168V49.7129H98V59.727H56.624Z" stroke="white" stroke-width="1.5"/>
<path d="M24.4372 61C19.5628 60.9811 15.3685 59.7836 11.8544 57.4074C8.35916 55.0311 5.66689 51.5893 3.77757 47.082C1.90715 42.5747 0.98139 37.1528 1.00028 30.8161C1.00028 24.4983 1.93549 19.1141 3.80591 14.6634C5.69523 10.2126 8.3875 6.82744 11.8827 4.50778C15.3969 2.16926 19.5817 1 24.4372 1C29.2928 1 33.4681 2.16926 36.9634 4.50778C40.4775 6.8463 43.1792 10.2409 45.0685 14.6917C46.9578 19.1235 47.893 24.4983 47.8742 30.8161C47.8742 37.1716 46.9295 42.603 45.0402 47.1103C43.1698 51.6176 40.4869 55.0594 36.9917 57.4356C33.4965 59.8119 29.3116 61 24.4372 61ZM24.4372 50.8444C27.7624 50.8444 30.4169 49.1754 32.4007 45.8373C34.3845 42.4993 35.3669 37.4922 35.348 30.8161C35.348 26.422 34.8946 22.7633 33.9877 19.8402C33.0997 16.917 31.8339 14.7199 30.1902 13.2489C28.5654 11.7779 26.6477 11.0424 24.4372 11.0424C21.1309 11.0424 18.4859 12.6926 16.5021 15.9929C14.5183 19.2933 13.517 24.2343 13.4981 30.8161C13.4981 35.2669 13.9421 38.9821 14.8301 41.9618C15.7369 44.9227 17.0122 47.148 18.6559 48.6379C20.2996 50.1089 22.2267 50.8444 24.4372 50.8444ZM56.624 59.727V50.901L77.2837 31.8062C79.0407 30.1089 80.5144 28.5813 81.7047 27.2235C82.9138 25.8656 83.8302 24.5361 84.4536 23.2348C85.0771 21.9147 85.3888 20.4908 85.3888 18.9632C85.3888 17.2659 85.0015 15.8043 84.2269 14.5785C83.4523 13.3338 82.3943 12.3814 81.0529 11.7214C79.7114 11.0424 78.1906 10.703 76.4902 10.703C74.7142 10.703 73.165 11.0613 71.8425 11.7779C70.5199 12.4946 69.4997 13.5224 68.7818 14.8614C68.0638 16.2004 67.7049 17.794 67.7049 19.6421H56.0572C56.0572 15.8515 56.9169 12.5606 58.6362 9.76945C60.3554 6.97831 62.7643 4.81895 65.8628 3.29137C68.9613 1.76379 72.5321 1 76.5752 1C80.7317 1 84.3497 1.7355 87.4293 3.20651C90.5278 4.65865 92.9366 6.67657 94.6559 9.26025C96.3752 11.8439 97.2348 14.8048 97.2348 18.1429C97.2348 20.3305 96.8003 22.4899 95.9312 24.6209C95.081 26.752 93.5601 29.1188 91.3685 31.7214C89.1769 34.305 86.0879 37.4074 82.1014 41.0283L73.6279 49.3168V49.7129H98V59.727H56.624Z" stroke="url(#paint0_linear_543_1099)" stroke-width="1.5"/>
<defs>
<linearGradient id="paint0_linear_543_1099" x1="-4.86832" y1="74.1653" x2="106.598" y2="44.8084" gradientUnits="userSpaceOnUse">
<stop offset="0.00591226" stop-color="#5F5DE5"/>
<stop offset="1" stop-color="#5FFFD8"/>
</linearGradient>
</defs>
</svg>
