<svg width="28" height="28" viewBox="0 0 28 28" fill="none" xmlns="http://www.w3.org/2000/svg">
<path fill-rule="evenodd" clip-rule="evenodd" d="M5 23.6254C5 18.8617 9.02944 15 14 15C18.9706 15 23 18.8617 23 23.6254V24.2296C23 24.6551 22.6401 25 22.1961 25C21.7522 25 21.3923 24.6551 21.3923 24.2296V23.6254C21.3923 19.7127 18.0827 16.5408 14 16.5408C9.91735 16.5408 6.60771 19.7127 6.60771 23.6254V24.2296C6.60771 24.6551 6.24781 25 5.80385 25C5.3599 25 5 24.6551 5 24.2296V23.6254Z" fill="white"/>
<path fill-rule="evenodd" clip-rule="evenodd" d="M14 4.54079C12.0895 4.54079 10.5408 6.08953 10.5408 8C10.5408 9.91047 12.0895 11.4592 14 11.4592C15.9105 11.4592 17.4592 9.91047 17.4592 8C17.4592 6.08953 15.9105 4.54079 14 4.54079ZM9 8C9 5.23858 11.2386 3 14 3C16.7614 3 19 5.23858 19 8C19 10.7614 16.7614 13 14 13C11.2386 13 9 10.7614 9 8Z" fill="white"/>
</svg>
